<?xml version="1.0" encoding="UTF-8"?>
<!DOCTYPE svg PUBLIC "-//W3C//DTD SVG 1.1 Tiny//EN" "http://www.w3.org/Graphics/SVG/1.1/DTD/svg11-tiny.dtd">
<svg baseProfile="tiny" height="100%" style="overflow:visible;enable-background:new 0 0 138.322 138.188;" version="1.1" viewBox="0 0 138.322 138.188" width="100%" xmlns="http://www.w3.org/2000/svg">
<defs/>
<g>
<path d="M136.669,81.629c0,16.681,0,33.362,0,50.044c0,8.34-20.666,4.989-25.896,5.036   c-35.376,0.32-70.755,0.194-106.132,0.598c-4.484,0.051-3.74-4.697-3.697-7.647c0.125-8.313,0.212-16.628,0.273-24.944   C1.373,83.558,1.301,62.4,1.301,41.243c0-12,0-24.001,0-36c0-5.146,8.066-3.724,11.321-3.724c33.232,0,66.463,0,99.693,0   c4.165,0,24.354-2.984,24.354,4.05C136.669,30.922,136.669,56.275,136.669,81.629" style="fill:#FFFFFF;"/>
<path d="M4.784,0.646c-6.545,0-4.342,13.481-4.342,17.319c0,11.269,0,22.537,0,33.806   c0,22.804,0.037,45.608-0.242,68.413c-0.054,4.51-0.122,9.019-0.193,13.528c-0.081,5.178,5.559,4.458,8.97,4.423   c17.335-0.185,34.671-0.315,52.008-0.367c20.792-0.063,41.584-0.082,62.376-0.324c6.083-0.071,14.183,1.502,14.183-6.552   c0-38.81,0-77.616,0-116.422c0-3.44,1.462-11.734-2.656-13.481c-3.452-1.467-9.152-0.342-12.723-0.342c-21.33,0-42.66,0-63.988,0   C40.379,0.646,22.583,0.646,4.784,0.646 M1.739,133.842c0-42.059,0.438-84.123,0.438-126.185c0-4.561,1.884-5.277,6.048-5.277   c7.34,0,14.68,0,22.018,0c22.936,0,45.87,0,68.804,0c3.653,0,36.749-2.81,36.749,2.695c0,14.619,0,29.235,0,43.853   c0,22.409,0,44.819,0,67.228c0,5.43,0,10.861,0,16.291c0,5.947-20.765,3.347-24.271,3.382c-23.665,0.22-47.332,0.154-70.998,0.302   C36.862,136.152,1.739,139.236,1.739,133.842" style="fill:#A8A8A8;"/>
<path d="M127.392,98.685c-0.592,9.807-21.065,3.646-26.656,6.219c-2.869,1.321-3.149,3.683-3.745,6.4   c-0.564,2.565-1.637,5.023-2.949,7.289c-1.058,1.822-2.299,3.535-3.678,5.127c-2.847,3.287-4.023,3.626-8.243,3.738   c-18.259,0.481-36.523,0.742-54.788,0.92c-4.285,0.043-16.221,2.584-16.185-4.031c0.188-36.092,0.376-72.181,0.564-108.272   c0.022-4.21,3.15-4.137,6.417-4.137c6.83,0,13.658,0,20.486,0c20.653,0,41.305,0,61.959,0c6.599,0,13.2,0,19.801,0   c5.021,0,5.865,2.125,5.931,6.945C126.666,45.483,127.024,72.084,127.392,98.685" style="fill:#F4F4F4;"/>
<path d="M137.61,30.657c0,5.078-9.771,3.471-12.788,3.471c-9.147,0-18.293,0-27.44,0   c-23.029,0-46.059,0-69.087,0c-7.118,0-14.236,0-21.354,0c-7.196,0-6.357-5.305-6.357-11.397C0.583,18.768-2.185,0,4.335,0   c5.106,0,10.211,0,15.316,0c30.082,0,60.165,0,90.248,0c8.037,0,16.072,0,24.105,0C140.7,0,137.61,25.875,137.61,30.657" style="fill:#2A2AD8;"/>
<path d="M4.634,28.561C4.528,28.472,7.02,14.998,7.167,13.544c0.517-5.031,1.395-6.962,6.609-7.16   C29.948,5.764,46.134,5.125,62.319,5c20.742-0.163,41.521,0.379,62.239,1.357c4.368,0.205,5.938,1.414,6.277,5.957   c0.261,3.459-0.586,14.48,2.076,16.961c0.009,0.007,1.305-8.396,1.36-9.182c0.305-4.393,0.517-8.791,0.689-13.189   c0.214-5.406-5.565-4.301-9.195-4.301c-18.161,0-36.324,0-54.485,0c-18.903,0-37.804,0-56.708,0c-2.87,0-11.378-1.422-11.378,3.337   C2.356,8.739,3.378,13.311,3.49,16.194C3.578,18.418,2.736,26.957,4.634,28.561" style="fill:#5656EF;"/>
<path d="M136.669,33.624c-36.086,0-72.173,0-108.258,0c-7.655,0-15.312,0-22.969,0c-1.512,0-3.023,0-4.537,0   c-1.005,0-0.705-2.959,1.481-2.997c36.955-0.617,73.913-0.792,110.871-0.333c6.415,0.08,12.83,0.173,19.247,0.286   C135.263,30.631,137.73,29.778,136.669,33.624" style="fill:#0D0DB2;"/>
<linearGradient gradientTransform="matrix(181.3333 0 0 -181.3333 45114.2656 84196.9688)" gradientUnits="userSpaceOnUse" id="XMLID_6_" x1="-248.7837" x2="-247.0114" y1="463.8164" y2="463.8164">
<stop offset="0" style="stop-color:#F4F4F4"/>
<stop offset="1" style="stop-color:#6E6E6E"/>
</linearGradient>
<path d="M37.693,62.636c-4.772,0-9.545,0-14.317,0c-2.447,0-1.287,3.93-1.287,5.984   c0,13.042,0,26.085,0,39.128c0,3.897,0,7.796,0,11.694c0,1.676,9.475,0.733,11.145,0.733c0.476,0,4.458,0.239,4.458-0.196   c0-3.127,0-6.252,0-9.379c0-4.664,0.085-3.92-5.008-4.046c-0.504-0.012-9.706-0.091-9.706-0.545c0-1.095,14.714,0.423,14.714-1.214   c0-4.547,0-9.093,0-13.64C37.693,81.649,37.693,72.144,37.693,62.636" style="fill:url(#XMLID_6_);"/>
<linearGradient gradientTransform="matrix(181.3333 0 0 -181.3333 45159.2656 84188.5938)" gradientUnits="userSpaceOnUse" id="XMLID_7_" x1="-248.5962" x2="-246.8642" y1="463.8613" y2="463.8613">
<stop offset="0" style="stop-color:#F4F4F4"/>
<stop offset="1" style="stop-color:#6E6E6E"/>
</linearGradient>
<path d="M115.754,48.751c-4.966,0-9.933,0-14.898,0c1.156,17.456,0.931,35.295,0.112,52.76   c5.013-0.128,10.053-1.119,14.544-3.411c-0.175-5.438-0.241-10.878-0.271-16.318C115.176,70.796,115.029,59.721,115.754,48.751" style="fill:url(#XMLID_7_);"/>
<linearGradient gradientTransform="matrix(181.3333 0 0 -181.3333 45159.2656 84188.5938)" gradientUnits="userSpaceOnUse" id="XMLID_8_" x1="-248.5981" x2="-246.8481" y1="463.6963" y2="463.6963">
<stop offset="0" style="stop-color:#FFFFFF"/>
<stop offset="1" style="stop-color:#737373"/>
</linearGradient>
<path d="M106.651,105.013c-1.043-0.007-2.084,0.034-3.122,0.122c2.882,0,5.767,0,8.65,0   C110.336,105.091,108.493,105.013,106.651,105.013" style="fill:url(#XMLID_8_);"/>
<path d="M69.808,92.123c-5.462,0-10.922,0-16.385,0c0.438,0-1.179-14.017-0.147-14.979   c1.95-1.816,13.459,0,16.385,0C69.958,77.145,69.808,90.557,69.808,92.123" style="fill:#EF5656;"/>
<path d="M23.867,92.627c0,1.795,0.156,29.998-0.888,29.998c-1.339,0-1.339-59.996,0-59.996   C24.023,62.629,23.867,90.831,23.867,92.627" style="fill:#A8A8A8;"/>
<path d="M38.618,92.627c0,1.795,0.156,29.998-0.888,29.998c-1.338,0-1.338-59.996,0-59.996   C38.774,62.629,38.618,90.831,38.618,92.627" style="fill:#A8A8A8;"/>
<path d="M53.659,83.517c0,2.214,0.156,37.373-0.888,37.373c-1.34,0-1.34-74.747,0-74.747   C53.815,46.143,53.659,81.302,53.659,83.517" style="fill:#A8A8A8;"/>
<path d="M70.725,83.517c0,2.214,0.156,37.373-0.888,37.373c-1.34,0-1.34-74.747,0-74.747   C70.881,46.143,70.725,81.302,70.725,83.517" style="fill:#A8A8A8;"/>
<path d="M101.387,76.146c0,1.796,0.146,29.989-0.89,29.989c-1.347,0-1.347-59.992,0-59.992   C101.534,46.143,101.387,74.352,101.387,76.146" style="fill:#A8A8A8;"/>
<path d="M85.764,83.517c0,2.214,0.156,37.373-0.888,37.373c-1.341,0-1.341-74.747,0-74.747   C85.92,46.143,85.764,81.302,85.764,83.517" style="fill:#A8A8A8;"/>
<path d="M117.005,76.146c0,1.796,0.147,29.989-0.89,29.989c-1.346,0-1.346-59.992,0-59.992   C117.153,46.143,117.005,74.352,117.005,76.146" style="fill:#A8A8A8;"/>
<path d="M69.754,61.741c2.75,0,46.772-0.158,46.772,0.888c0,1.34-93.547,1.34-93.547,0   C22.979,61.583,67.003,61.741,69.754,61.741" style="fill:#A8A8A8;"/>
<path d="M69.754,75.624c2.75,0,46.772-0.157,46.772,0.889c0,1.34-93.547,1.34-93.547,0   C22.979,75.467,67.003,75.624,69.754,75.624" style="fill:#A8A8A8;"/>
<path d="M69.754,91.533c2.75,0,46.772-0.158,46.772,0.888c0,1.341-93.547,1.339-93.547,0   C22.979,91.375,67.003,91.533,69.754,91.533" style="fill:#A8A8A8;"/>
<path d="M84.515,47.279c1.983,0,33.313-0.156,33.313,0.888c0,1.339-66.628,1.339-66.628,0   C51.2,47.124,82.532,47.279,84.515,47.279" style="fill:#A8A8A8;"/>
<path d="M69.757,105.117c2.751,0,46.764-0.147,46.764,0.893c0,1.349-93.542,1.349-93.542,0   C22.979,104.97,67.007,105.117,69.757,105.117" style="fill:#A8A8A8;"/>
<path d="M54.445,119.88c1.878,0,31.462-0.157,31.462,0.887c0,1.339-62.929,1.339-62.929,0   C22.979,119.723,52.567,119.88,54.445,119.88" style="fill:#A8A8A8;"/>
<path d="M84.456,134.42c12.902,1.284,25.941-5.427,34.564-14.604c4.806-5.104,7.468-11.811,11.233-17.631   c3.541-5.47,2.462,4.834,2.457,6.959c-0.014,6.11,2.796,21.35-4.888,23.437C114.133,136.303,98.404,135.014,84.456,134.42" style="fill:#DBDBDB;"/>
<path d="M121.752,103.944c-1.747,0.381-3.556,0.47-5.339,0.432   C116.265,106.117,120.671,104.392,121.752,103.944 M130.812,75.709c-0.383,2.895-1.247,5.736-2.421,8.404   c-2.239,5.088,0.164,10.342-1.153,15.583C132.189,93.198,132.114,83.418,130.812,75.709" style="fill:#DBDBDB;"/>
<path d="M127.223,86.499c-1.667,3.082-3.865,5.877-6.536,8.152c-2.29,1.947-3.9,1.755-4.021,4.945   c-0.059,1.593-0.124,3.188-0.253,4.779c3.857,0.084,6.958-0.563,9.716-3.394C129.002,98.036,127.277,90.37,127.223,86.499" style="fill:#D2D2D2;"/>
<path d="M100.27,105.139C99.578,105.518,100.307,105.441,100.27,105.139" style="fill:#DBDBDB;"/>
<path d="M100.026,101.527c-2.859,0-4.989,1.119-6.345,3.719c1.644,0.018,5.158,0.68,6.589-0.107   C100.27,104.158,100.077,102.639,100.026,101.527" style="fill:#D2D2D2;"/>
<path d="M115.787,104.355C115.818,104.894,115.874,105.889,115.787,104.355" style="fill:#DBDBDB;"/>
<path d="M115.787,103.993C115.809,104.552,115.82,104.4,115.787,103.993" style="fill:#D2D2D2;"/>
<path d="M96.578,112.855c-1.091,3.577-2.999,6.892-5.329,9.801c-2.885,3.602-2.947,8.68-6.793,11.764   C93.597,131.776,96.801,121.392,96.578,112.855 M98.513,106.715C98.375,106.715,97.88,107.192,98.513,106.715 M103.529,105.135   c-0.558-0.009-2.77-0.278-2.833,0.21C101.649,105.419,102.593,105.35,103.529,105.135 M115.787,105.135c-1.203,0-2.405,0-3.607,0   C113.381,105.171,114.583,105.171,115.787,105.135" style="fill:#DBDBDB;"/>
<path d="M98.399,106.716c-5.759,0.084-5.936,0.547-6.89,6.181c-0.662,3.91-1.061,7.867-1.964,11.735   c2.825-3.049,5.176-6.604,6.609-10.518C97.15,111.402,96.522,109.238,98.399,106.716" style="fill:#D2D2D2;"/>
<linearGradient gradientTransform="matrix(181.3333 0 0 -181.3333 45159.2656 84188.5938)" gradientUnits="userSpaceOnUse" id="XMLID_9_" x1="-248.5962" x2="-246.8615" y1="463.6992" y2="463.6992">
<stop offset="0" style="stop-color:#DBDBDB"/>
<stop offset="1" style="stop-color:#636363"/>
</linearGradient>
</g>
</svg>
